<svg width="33" height="33" viewBox="0 0 33 33" fill="none" xmlns="http://www.w3.org/2000/svg">
<circle cx="16.5" cy="16.5" r="16.5" fill="#37C71A"/>
<path d="M12.3699 23.5313C12.3699 23.3753 12.3399 23.2973 12.2799 23.2973L11.8659 23.4953C11.8659 23.4113 11.8179 23.3513 11.7219 23.3153L11.5779 23.2973C11.4819 23.2973 11.3619 23.3393 11.2179 23.4233C11.1939 23.3633 11.1639 23.3033 11.1279 23.2433C11.0919 23.1833 11.0619 23.1293 11.0379 23.0813C10.8819 22.7813 10.7259 22.4513 10.5699 22.0913C10.4259 21.7193 10.2879 21.3653 10.1559 21.0293C10.0359 20.6933 9.93991 20.4293 9.86791 20.2373C9.81991 20.0813 9.76591 19.8473 9.70591 19.5353C9.64591 19.2233 9.58591 18.8273 9.52591 18.3473C9.65791 18.4313 9.75991 18.4733 9.83191 18.4733C9.91591 18.4733 9.99391 18.3473 10.0659 18.0953C10.1019 18.1433 10.1679 18.1673 10.2639 18.1673C10.3359 18.1673 10.3899 18.1433 10.4259 18.0953L10.7139 17.6633L11.0379 17.7713H11.0559C11.0799 17.7713 11.1039 17.7593 11.1279 17.7353C11.1519 17.7113 11.1879 17.6873 11.2359 17.6633C11.3319 17.6033 11.4039 17.5733 11.4519 17.5733L11.5059 17.5913C11.8059 17.7353 11.9979 17.9993 12.0819 18.3833C12.2979 19.2953 12.5139 19.7513 12.7299 19.7513C12.9459 19.7513 13.1979 19.5233 13.4859 19.0673C13.6299 18.8393 13.7739 18.5753 13.9179 18.2753C14.0739 17.9753 14.2299 17.6393 14.3859 17.2673C14.4099 17.4113 14.4339 17.4833 14.4579 17.4833C14.5179 17.4833 14.6199 17.3333 14.7639 17.0333C14.9199 16.7333 15.1659 16.3193 15.5019 15.7913C15.6939 15.4673 15.9339 15.1013 16.2219 14.6933C16.5219 14.2853 16.8399 13.8653 17.1759 13.4333C17.5119 13.0013 17.8359 12.5933 18.1479 12.2093C18.4719 11.8253 18.7599 11.4953 19.0119 11.2193C19.2639 10.9433 19.4499 10.7633 19.5699 10.6793C20.0259 10.3673 20.3859 10.0673 20.6499 9.77926C20.6379 9.86326 20.6199 9.94126 20.5959 10.0133C20.5839 10.0733 20.5779 10.1153 20.5779 10.1393C20.5779 10.1873 20.6019 10.2113 20.6499 10.2113L21.1539 9.95926V10.0313C21.1539 10.1273 21.1779 10.1753 21.2259 10.1753C21.2619 10.1753 21.3339 10.1213 21.4419 10.0133C21.5499 9.90526 21.6099 9.82726 21.6219 9.77926L21.5859 10.0313L22.1979 9.67126L22.0539 9.99526C22.2459 9.86326 22.3839 9.79726 22.4679 9.79726C22.5159 9.79726 22.5519 9.82726 22.5759 9.88726C22.5999 9.93526 22.6119 9.98326 22.6119 10.0313C22.6119 10.1033 22.5819 10.1873 22.5219 10.2833C22.4619 10.3793 22.3839 10.4933 22.2879 10.6253C22.2159 10.7213 22.0959 10.8653 21.9279 11.0573C21.7719 11.2373 21.5319 11.5073 21.2079 11.8673C20.8839 12.2153 20.4519 12.7013 19.9119 13.3253C19.7679 13.4813 19.5459 13.7573 19.2459 14.1533C18.9459 14.5373 18.6039 14.9873 18.2199 15.5033C17.8479 16.0073 17.4759 16.5173 17.1039 17.0333C16.7319 17.5493 16.4019 18.0173 16.1139 18.4373C15.8259 18.8453 15.6219 19.1513 15.5019 19.3553L14.3859 21.2453C14.1459 21.6533 13.9479 21.9893 13.7919 22.2533C13.6359 22.5053 13.5159 22.6793 13.4319 22.7753C13.2519 22.9913 13.0539 23.1833 12.8379 23.3513L12.6759 23.2613L12.5319 23.3513L12.3699 23.5313Z" fill="white"/>
</svg>
